<svg width="48" height="47" viewBox="0 0 48 47" fill="none" xmlns="http://www.w3.org/2000/svg">
<g clip-path="url(#clip0_533_2337)">
<path d="M27.5176 18.4529C27.5176 19.2045 28.1486 19.8164 28.9238 19.8164H33.1042C33.0283 18.8568 32.7988 17.9398 32.4316 17.0894H28.9238C28.1486 17.0894 27.5176 17.7012 27.5176 18.4529Z" fill="#232536"/>
<path d="M18.377 34.9058H26.8145C27.2031 34.9058 27.5176 34.6009 27.5176 34.224V30.7243H28.9238V26.2929L21.893 21.1797H15.5645C15.1758 21.1797 14.8613 21.4846 14.8613 21.8614C14.8613 24.2762 15.8824 26.5892 17.6738 28.2569V34.224C17.6738 34.6009 17.9883 34.9058 18.377 34.9058Z" fill="#FFD050"/>
<path d="M24.002 11.6353C23.6133 11.6353 23.2988 11.9402 23.2988 12.317V12.9988H20.3568C20.0656 12.2069 19.2924 11.6353 18.377 11.6353C17.2138 11.6353 16.2676 12.5527 16.2676 13.6805C16.2676 14.8083 17.2138 15.7258 18.377 15.7258C19.2924 15.7258 20.0656 15.1541 20.3568 14.3623H23.2988V17.0893H16.1381C15.8468 16.2975 15.0737 15.7258 14.1582 15.7258C12.995 15.7258 12.002 16.6433 12.002 17.7711C12.002 18.8989 12.995 19.8164 14.1582 19.8164C15.0737 19.8164 15.8468 19.2447 16.1381 18.4529H23.2988V20.4984L30.0485 25.4069C30.2257 25.5354 30.3301 25.7378 30.3301 25.9522V30.7245H31.0332C32.1964 30.7245 33.1426 29.8071 33.1426 28.6792V25.2704H35.2988C35.5584 25.2704 35.7966 25.132 35.9189 24.9103C36.0411 24.6885 36.0274 24.4196 35.8839 24.2105L33.7533 21.1799H28.9238C27.3727 21.1799 26.1113 19.9569 26.1113 18.4529C26.1113 16.9488 27.3727 15.7258 28.9238 15.7258H31.6897C30.0628 13.2705 27.2291 11.6353 24.002 11.6353V11.6353Z" fill="#232536"/>
</g>
<defs>
<clipPath id="clip0_533_2337">
<rect width="24" height="23.2707" fill="white" transform="translate(12 11.6353)"/>
</clipPath>
</defs>
</svg>
