<svg width="23" height="24" viewBox="0 0 23 24" fill="none" xmlns="http://www.w3.org/2000/svg">
<g clip-path="url(#clip0_533_2312)">
<path d="M5.11557 14.9565H2.53171C1.5999 14.9565 0.841797 15.725 0.841797 16.6696V22.2187C0.841797 22.7988 1.30738 23.2707 1.87959 23.2707H5.76759C6.33985 23.2707 6.80544 22.7988 6.80544 22.2187V16.6696C6.80544 15.725 6.04738 14.9565 5.11557 14.9565Z" fill="#232536"/>
<path d="M12.6996 11.5859H10.1157C9.18389 11.5859 8.42578 12.3544 8.42578 13.2989V22.2183C8.42578 22.7984 8.89137 23.2703 9.46363 23.2703H13.3516C13.9239 23.2703 14.3894 22.7984 14.3894 22.2183V13.299C14.3894 12.3544 13.6314 11.5859 12.6996 11.5859Z" fill="#232536"/>
<path d="M20.4261 7.74609H17.8423C16.9104 7.74609 16.1523 8.51458 16.1523 9.45909V22.2186C16.1523 22.7987 16.6179 23.2706 17.1901 23.2706H21.0781C21.6504 23.2706 22.1159 22.7987 22.1159 22.2186V9.45909C22.116 8.51458 21.3579 7.74609 20.4261 7.74609Z" fill="#232536"/>
<path d="M18.3681 0.647841C18.052 0.19497 17.538 -0.0445099 16.9929 0.0062131L12.1128 0.463902C11.5678 0.515034 11.1059 0.84637 10.8771 1.35028C10.6483 1.85419 10.7004 2.42547 11.0165 2.87834L11.2889 3.26858L5.23176 7.51136L5.22557 7.51577C4.79576 7.82406 4.51015 8.28361 4.42133 8.8097C4.33251 9.3358 4.45106 9.86543 4.75519 10.3011C5.05932 10.7368 5.51266 11.0263 6.03165 11.1164C6.1441 11.1359 6.25669 11.1456 6.36851 11.1456C6.77133 11.1456 7.1637 11.0203 7.49957 10.7805L13.5664 6.53103L13.8476 6.93377C14.1357 7.34642 14.588 7.58217 15.0783 7.58217C15.1261 7.58217 15.1743 7.5799 15.2228 7.5754C15.7677 7.52427 16.2297 7.19288 16.4585 6.68893L18.5076 2.1759C18.7364 1.67189 18.6843 1.10067 18.3681 0.647841Z" fill="#FFD050"/>
</g>
<defs>
<clipPath id="clip0_533_2312">
<rect width="22.9565" height="23.2707" fill="white"/>
</clipPath>
</defs>
</svg>
