<svg width="48" height="47" viewBox="0 0 48 47" fill="none" xmlns="http://www.w3.org/2000/svg">
<path d="M25.0305 13.491L14.04 11.8722C13.53 11.7951 13.0095 11.9304 12.6195 12.2504C12.2295 12.5805 12 13.0547 12 13.5492V33.9794C12 34.5132 12.45 34.9495 13.0005 34.9495H16.251V29.8591C16.251 28.918 17.031 28.1617 18.0015 28.1617H20.502C21.4725 28.1617 22.2525 28.918 22.2525 29.8591V34.9495H26.502V15.1694C26.5005 14.3346 25.8795 13.6277 25.0305 13.491ZM17.5005 25.9801H16.0005C15.5865 25.9801 15.2505 25.6543 15.2505 25.2529C15.2505 24.8515 15.5865 24.5257 16.0005 24.5257H17.5005C17.9145 24.5257 18.2505 24.8515 18.2505 25.2529C18.2505 25.6543 17.9145 25.9801 17.5005 25.9801ZM17.5005 23.0713H16.0005C15.5865 23.0713 15.2505 22.7455 15.2505 22.3441C15.2505 21.9426 15.5865 21.6169 16.0005 21.6169H17.5005C17.9145 21.6169 18.2505 21.9426 18.2505 22.3441C18.2505 22.7455 17.9145 23.0713 17.5005 23.0713ZM17.5005 20.1624H16.0005C15.5865 20.1624 15.2505 19.8366 15.2505 19.4352C15.2505 19.0338 15.5865 18.708 16.0005 18.708H17.5005C17.9145 18.708 18.2505 19.0338 18.2505 19.4352C18.2505 19.8366 17.9145 20.1624 17.5005 20.1624ZM17.5005 17.2536H16.0005C15.5865 17.2536 15.2505 16.9278 15.2505 16.5264C15.2505 16.125 15.5865 15.7992 16.0005 15.7992H17.5005C17.9145 15.7992 18.2505 16.125 18.2505 16.5264C18.2505 16.9278 17.9145 17.2536 17.5005 17.2536ZM22.5 25.9801H21C20.586 25.9801 20.25 25.6543 20.25 25.2529C20.25 24.8515 20.586 24.5257 21 24.5257H22.5C22.914 24.5257 23.25 24.8515 23.25 25.2529C23.25 25.6543 22.914 25.9801 22.5 25.9801ZM22.5 23.0713H21C20.586 23.0713 20.25 22.7455 20.25 22.3441C20.25 21.9426 20.586 21.6169 21 21.6169H22.5C22.914 21.6169 23.25 21.9426 23.25 22.3441C23.25 22.7455 22.914 23.0713 22.5 23.0713ZM22.5 20.1624H21C20.586 20.1624 20.25 19.8366 20.25 19.4352C20.25 19.0338 20.586 18.708 21 18.708H22.5C22.914 18.708 23.25 19.0338 23.25 19.4352C23.25 19.8366 22.914 20.1624 22.5 20.1624ZM22.5 17.2536H21C20.586 17.2536 20.25 16.9278 20.25 16.5264C20.25 16.125 20.586 15.7992 21 15.7992H22.5C22.914 15.7992 23.25 16.125 23.25 16.5264C23.25 16.9278 22.914 17.2536 22.5 17.2536Z" fill="#232536"/>
<path d="M34.6205 22.1918L27.5 20.7461V34.95H34.25C35.2145 34.95 36.0005 34.1893 36.0005 33.2527V23.8498C36.0005 23.0484 35.4365 22.3663 34.6205 22.1918ZM32.2505 32.0411H30.7505C30.3365 32.0411 30.0005 31.7153 30.0005 31.3139C30.0005 30.9125 30.3365 30.5867 30.7505 30.5867H32.2505C32.6645 30.5867 33.0005 30.9125 33.0005 31.3139C33.0005 31.7153 32.6645 32.0411 32.2505 32.0411ZM32.2505 29.1323H30.7505C30.3365 29.1323 30.0005 28.8065 30.0005 28.4051C30.0005 28.0037 30.3365 27.6779 30.7505 27.6779H32.2505C32.6645 27.6779 33.0005 28.0037 33.0005 28.4051C33.0005 28.8065 32.6645 29.1323 32.2505 29.1323ZM32.2505 26.2234H30.7505C30.3365 26.2234 30.0005 25.8977 30.0005 25.4962C30.0005 25.0948 30.3365 24.769 30.7505 24.769H32.2505C32.6645 24.769 33.0005 25.0948 33.0005 25.4962C33.0005 25.8977 32.6645 26.2234 32.2505 26.2234Z" fill="#FFD050"/>
</svg>
